G04 MADE WITH FRITZING*
G04 WWW.FRITZING.ORG*
G04 DOUBLE SIDED*
G04 HOLES PLATED*
G04 CONTOUR ON CENTER OF CONTOUR VECTOR*
%ASAXBY*%
%FSLAX23Y23*%
%MOIN*%
%OFA0B0*%
%SFA1.0B1.0*%
%ADD10C,0.075000*%
%ADD11C,0.039370*%
%ADD12C,0.055433*%
%ADD13C,0.031496*%
%ADD14C,0.031000*%
%ADD15R,0.043307X0.047244*%
%ADD16R,0.060000X0.030000*%
%ADD17R,0.075000X0.075000*%
%ADD18R,0.047244X0.043307*%
%ADD19R,0.098425X0.019685*%
%ADD20R,0.098425X0.078740*%
%ADD21R,0.024000X0.087000*%
%ADD22C,0.012000*%
%LNCOPPER1*%
G90*
G70*
G54D10*
X105Y241D03*
X1266Y272D03*
G54D11*
X614Y211D03*
X814Y251D03*
X814Y461D03*
X1044Y221D03*
X614Y131D03*
X384Y261D03*
X384Y201D03*
G54D10*
X1044Y91D03*
X1044Y391D03*
X1144Y91D03*
X1144Y391D03*
X1244Y91D03*
X1244Y391D03*
X1344Y91D03*
X1344Y391D03*
G54D12*
X384Y51D03*
X664Y51D03*
X384Y51D03*
X664Y51D03*
X384Y441D03*
X664Y441D03*
X384Y441D03*
X664Y441D03*
G54D13*
X186Y327D03*
G54D14*
X186Y154D03*
G54D13*
X186Y327D03*
G54D14*
X186Y154D03*
G54D15*
X674Y361D03*
X674Y294D03*
G54D16*
X1164Y321D03*
X1364Y321D03*
X1164Y171D03*
X1364Y171D03*
G54D17*
X1044Y91D03*
G54D15*
X674Y141D03*
X674Y208D03*
G54D18*
X464Y131D03*
X531Y131D03*
X464Y211D03*
X531Y211D03*
X454Y291D03*
X521Y291D03*
X384Y361D03*
X451Y361D03*
G54D19*
X284Y241D03*
X284Y272D03*
X284Y178D03*
X284Y209D03*
G54D20*
X68Y64D03*
X68Y418D03*
X284Y64D03*
X284Y418D03*
G54D19*
X284Y304D03*
G54D21*
X764Y171D03*
X814Y171D03*
X864Y171D03*
X914Y171D03*
X914Y377D03*
X864Y377D03*
X814Y377D03*
X764Y377D03*
G54D22*
X564Y361D02*
X469Y361D01*
D02*
X658Y304D02*
X564Y361D01*
D02*
X667Y418D02*
X672Y379D01*
D02*
X724Y221D02*
X724Y141D01*
D02*
X744Y301D02*
X690Y295D01*
D02*
X764Y321D02*
X744Y301D01*
D02*
X764Y339D02*
X764Y321D01*
D02*
X754Y241D02*
X734Y241D01*
D02*
X734Y241D02*
X724Y221D01*
D02*
X724Y141D02*
X714Y131D01*
D02*
X714Y131D02*
X690Y137D01*
D02*
X763Y216D02*
X754Y241D01*
D02*
X763Y209D02*
X763Y216D01*
D02*
X614Y261D02*
X539Y285D01*
D02*
X452Y345D02*
X454Y307D01*
D02*
X658Y222D02*
X614Y261D01*
D02*
X884Y81D02*
X864Y101D01*
D02*
X995Y51D02*
X1026Y76D01*
D02*
X794Y51D02*
X995Y51D01*
D02*
X1094Y150D02*
X994Y150D01*
D02*
X994Y150D02*
X954Y81D01*
D02*
X954Y81D02*
X884Y81D01*
D02*
X764Y131D02*
X764Y81D01*
D02*
X764Y81D02*
X794Y51D01*
D02*
X1129Y109D02*
X1094Y150D01*
D02*
X864Y101D02*
X864Y133D01*
D02*
X764Y133D02*
X764Y131D01*
D02*
X914Y121D02*
X914Y133D01*
D02*
X974Y181D02*
X934Y111D01*
D02*
X934Y111D02*
X924Y111D01*
D02*
X924Y111D02*
X914Y121D01*
D02*
X1094Y181D02*
X974Y181D01*
D02*
X1124Y171D02*
X1094Y181D01*
D02*
X1285Y21D02*
X1329Y73D01*
D02*
X754Y21D02*
X1285Y21D01*
D02*
X686Y43D02*
X754Y21D01*
D02*
X1140Y171D02*
X1124Y171D01*
D02*
X535Y210D02*
X601Y211D01*
D02*
X814Y209D02*
X814Y237D01*
D02*
X531Y211D02*
X535Y210D01*
D02*
X1189Y171D02*
X1274Y171D01*
D02*
X1274Y171D02*
X1329Y108D01*
D02*
X884Y311D02*
X865Y330D01*
D02*
X954Y341D02*
X944Y311D01*
D02*
X944Y311D02*
X884Y311D01*
D02*
X954Y411D02*
X954Y341D01*
D02*
X984Y451D02*
X954Y411D01*
D02*
X1195Y451D02*
X984Y451D01*
D02*
X915Y441D02*
X914Y415D01*
D02*
X1344Y441D02*
X1314Y481D01*
D02*
X1314Y481D02*
X944Y481D01*
D02*
X1344Y414D02*
X1344Y441D01*
D02*
X944Y481D02*
X915Y441D01*
D02*
X1230Y409D02*
X1195Y451D01*
D02*
X864Y330D02*
X864Y339D01*
D02*
X1044Y331D02*
X1005Y280D01*
D02*
X794Y301D02*
X764Y321D01*
D02*
X864Y280D02*
X844Y301D01*
D02*
X844Y301D02*
X794Y301D01*
D02*
X1005Y280D02*
X865Y280D01*
D02*
X1044Y368D02*
X1044Y331D01*
D02*
X764Y321D02*
X764Y339D01*
D02*
X384Y377D02*
X384Y418D01*
D02*
X535Y130D02*
X531Y131D01*
D02*
X601Y131D02*
X535Y130D01*
D02*
X1104Y321D02*
X1051Y232D01*
D02*
X1140Y321D02*
X1104Y321D01*
D02*
X814Y447D02*
X814Y415D01*
D02*
X275Y301D02*
X284Y304D01*
D02*
X394Y301D02*
X275Y301D01*
D02*
X436Y294D02*
X394Y301D01*
D02*
X446Y222D02*
X396Y254D01*
D02*
X354Y271D02*
X372Y265D01*
D02*
X328Y272D02*
X354Y271D01*
D02*
X344Y240D02*
X375Y210D01*
D02*
X328Y240D02*
X344Y240D01*
D02*
X446Y135D02*
X424Y141D01*
D02*
X424Y141D02*
X392Y190D01*
D02*
X455Y51D02*
X344Y170D01*
D02*
X344Y170D02*
X319Y174D01*
D02*
X641Y51D02*
X455Y51D01*
G36*
X126Y460D02*
X126Y368D01*
X40Y368D01*
X40Y354D01*
X186Y354D01*
X186Y352D01*
X194Y352D01*
X194Y350D01*
X198Y350D01*
X198Y348D01*
X202Y348D01*
X202Y346D01*
X204Y346D01*
X204Y344D01*
X206Y344D01*
X206Y340D01*
X208Y340D01*
X208Y338D01*
X210Y338D01*
X210Y332D01*
X212Y332D01*
X212Y324D01*
X350Y324D01*
X350Y368D01*
X226Y368D01*
X226Y370D01*
X224Y370D01*
X224Y460D01*
X126Y460D01*
G37*
D02*
G36*
X40Y354D02*
X40Y302D01*
X178Y302D01*
X178Y304D01*
X174Y304D01*
X174Y306D01*
X172Y306D01*
X172Y308D01*
X168Y308D01*
X168Y310D01*
X166Y310D01*
X166Y314D01*
X164Y314D01*
X164Y316D01*
X162Y316D01*
X162Y322D01*
X160Y322D01*
X160Y334D01*
X162Y334D01*
X162Y338D01*
X164Y338D01*
X164Y342D01*
X166Y342D01*
X166Y344D01*
X168Y344D01*
X168Y346D01*
X170Y346D01*
X170Y348D01*
X174Y348D01*
X174Y350D01*
X176Y350D01*
X176Y352D01*
X184Y352D01*
X184Y354D01*
X40Y354D01*
G37*
D02*
G36*
X204Y312D02*
X204Y310D01*
X202Y310D01*
X202Y308D01*
X200Y308D01*
X200Y306D01*
X198Y306D01*
X198Y304D01*
X194Y304D01*
X194Y302D01*
X224Y302D01*
X224Y312D01*
X204Y312D01*
G37*
D02*
G36*
X40Y302D02*
X40Y300D01*
X224Y300D01*
X224Y302D01*
X40Y302D01*
G37*
D02*
G36*
X40Y302D02*
X40Y300D01*
X224Y300D01*
X224Y302D01*
X40Y302D01*
G37*
D02*
G36*
X40Y300D02*
X40Y180D01*
X190Y180D01*
X190Y178D01*
X196Y178D01*
X196Y176D01*
X200Y176D01*
X200Y174D01*
X202Y174D01*
X202Y172D01*
X204Y172D01*
X204Y170D01*
X224Y170D01*
X224Y300D01*
X40Y300D01*
G37*
D02*
G36*
X344Y182D02*
X344Y158D01*
X210Y158D01*
X210Y156D01*
X212Y156D01*
X212Y152D01*
X210Y152D01*
X210Y144D01*
X208Y144D01*
X208Y142D01*
X206Y142D01*
X206Y138D01*
X204Y138D01*
X204Y136D01*
X202Y136D01*
X202Y134D01*
X198Y134D01*
X198Y132D01*
X196Y132D01*
X196Y130D01*
X190Y130D01*
X190Y128D01*
X414Y128D01*
X414Y130D01*
X412Y130D01*
X412Y132D01*
X410Y132D01*
X410Y134D01*
X408Y134D01*
X408Y138D01*
X406Y138D01*
X406Y140D01*
X404Y140D01*
X404Y144D01*
X402Y144D01*
X402Y146D01*
X400Y146D01*
X400Y150D01*
X398Y150D01*
X398Y152D01*
X396Y152D01*
X396Y156D01*
X394Y156D01*
X394Y158D01*
X392Y158D01*
X392Y162D01*
X390Y162D01*
X390Y164D01*
X388Y164D01*
X388Y168D01*
X386Y168D01*
X386Y170D01*
X384Y170D01*
X384Y172D01*
X376Y172D01*
X376Y174D01*
X372Y174D01*
X372Y176D01*
X368Y176D01*
X368Y178D01*
X366Y178D01*
X366Y180D01*
X364Y180D01*
X364Y182D01*
X344Y182D01*
G37*
D02*
G36*
X40Y180D02*
X40Y128D01*
X182Y128D01*
X182Y130D01*
X176Y130D01*
X176Y132D01*
X172Y132D01*
X172Y134D01*
X170Y134D01*
X170Y136D01*
X168Y136D01*
X168Y138D01*
X166Y138D01*
X166Y140D01*
X164Y140D01*
X164Y144D01*
X162Y144D01*
X162Y148D01*
X160Y148D01*
X160Y160D01*
X162Y160D01*
X162Y164D01*
X164Y164D01*
X164Y168D01*
X166Y168D01*
X166Y170D01*
X168Y170D01*
X168Y172D01*
X170Y172D01*
X170Y174D01*
X172Y174D01*
X172Y176D01*
X176Y176D01*
X176Y178D01*
X182Y178D01*
X182Y180D01*
X40Y180D01*
G37*
D02*
G36*
X40Y128D02*
X40Y126D01*
X416Y126D01*
X416Y128D01*
X40Y128D01*
G37*
D02*
G36*
X40Y128D02*
X40Y126D01*
X416Y126D01*
X416Y128D01*
X40Y128D01*
G37*
D02*
G36*
X40Y126D02*
X40Y112D01*
X344Y112D01*
X344Y100D01*
X430Y100D01*
X430Y122D01*
X428Y122D01*
X428Y124D01*
X420Y124D01*
X420Y126D01*
X40Y126D01*
G37*
D02*
G36*
X722Y118D02*
X722Y116D01*
X718Y116D01*
X718Y114D01*
X706Y114D01*
X706Y108D01*
X630Y108D01*
X630Y106D01*
X628Y106D01*
X628Y104D01*
X624Y104D01*
X624Y102D01*
X748Y102D01*
X748Y118D01*
X722Y118D01*
G37*
D02*
G36*
X564Y114D02*
X564Y102D01*
X606Y102D01*
X606Y104D01*
X602Y104D01*
X602Y106D01*
X598Y106D01*
X598Y108D01*
X596Y108D01*
X596Y110D01*
X594Y110D01*
X594Y112D01*
X592Y112D01*
X592Y114D01*
X564Y114D01*
G37*
D02*
G36*
X126Y112D02*
X126Y40D01*
X224Y40D01*
X224Y112D01*
X126Y112D01*
G37*
D02*
G36*
X564Y102D02*
X564Y100D01*
X748Y100D01*
X748Y102D01*
X564Y102D01*
G37*
D02*
G36*
X564Y102D02*
X564Y100D01*
X748Y100D01*
X748Y102D01*
X564Y102D01*
G37*
D02*
G36*
X344Y100D02*
X344Y98D01*
X748Y98D01*
X748Y100D01*
X344Y100D01*
G37*
D02*
G36*
X344Y100D02*
X344Y98D01*
X748Y98D01*
X748Y100D01*
X344Y100D01*
G37*
D02*
G36*
X344Y98D02*
X344Y88D01*
X672Y88D01*
X672Y86D01*
X678Y86D01*
X678Y84D01*
X682Y84D01*
X682Y82D01*
X684Y82D01*
X684Y80D01*
X688Y80D01*
X688Y78D01*
X690Y78D01*
X690Y76D01*
X692Y76D01*
X692Y74D01*
X694Y74D01*
X694Y70D01*
X696Y70D01*
X696Y68D01*
X698Y68D01*
X698Y64D01*
X700Y64D01*
X700Y58D01*
X702Y58D01*
X702Y40D01*
X764Y40D01*
X764Y60D01*
X762Y60D01*
X762Y62D01*
X760Y62D01*
X760Y64D01*
X758Y64D01*
X758Y66D01*
X756Y66D01*
X756Y68D01*
X754Y68D01*
X754Y70D01*
X752Y70D01*
X752Y72D01*
X750Y72D01*
X750Y76D01*
X748Y76D01*
X748Y98D01*
X344Y98D01*
G37*
D02*
G36*
X344Y88D02*
X344Y80D01*
X364Y80D01*
X364Y82D01*
X366Y82D01*
X366Y84D01*
X370Y84D01*
X370Y86D01*
X376Y86D01*
X376Y88D01*
X344Y88D01*
G37*
D02*
G36*
X392Y88D02*
X392Y86D01*
X398Y86D01*
X398Y84D01*
X402Y84D01*
X402Y82D01*
X404Y82D01*
X404Y80D01*
X408Y80D01*
X408Y78D01*
X410Y78D01*
X410Y76D01*
X412Y76D01*
X412Y74D01*
X414Y74D01*
X414Y70D01*
X416Y70D01*
X416Y68D01*
X418Y68D01*
X418Y64D01*
X420Y64D01*
X420Y58D01*
X422Y58D01*
X422Y40D01*
X626Y40D01*
X626Y54D01*
X628Y54D01*
X628Y62D01*
X630Y62D01*
X630Y66D01*
X632Y66D01*
X632Y70D01*
X634Y70D01*
X634Y72D01*
X636Y72D01*
X636Y76D01*
X638Y76D01*
X638Y78D01*
X642Y78D01*
X642Y80D01*
X644Y80D01*
X644Y82D01*
X646Y82D01*
X646Y84D01*
X650Y84D01*
X650Y86D01*
X656Y86D01*
X656Y88D01*
X392Y88D01*
G37*
D02*
G36*
X422Y460D02*
X422Y434D01*
X420Y434D01*
X420Y428D01*
X418Y428D01*
X418Y424D01*
X416Y424D01*
X416Y420D01*
X414Y420D01*
X414Y418D01*
X412Y418D01*
X412Y416D01*
X410Y416D01*
X410Y414D01*
X408Y414D01*
X408Y412D01*
X406Y412D01*
X406Y392D01*
X484Y392D01*
X484Y378D01*
X564Y378D01*
X564Y376D01*
X572Y376D01*
X572Y374D01*
X574Y374D01*
X574Y372D01*
X578Y372D01*
X578Y370D01*
X582Y370D01*
X582Y368D01*
X584Y368D01*
X584Y366D01*
X588Y366D01*
X588Y364D01*
X592Y364D01*
X592Y362D01*
X594Y362D01*
X594Y360D01*
X598Y360D01*
X598Y358D01*
X602Y358D01*
X602Y356D01*
X604Y356D01*
X604Y354D01*
X608Y354D01*
X608Y352D01*
X612Y352D01*
X612Y350D01*
X614Y350D01*
X614Y348D01*
X618Y348D01*
X618Y346D01*
X620Y346D01*
X620Y344D01*
X642Y344D01*
X642Y412D01*
X640Y412D01*
X640Y414D01*
X638Y414D01*
X638Y416D01*
X636Y416D01*
X636Y418D01*
X634Y418D01*
X634Y422D01*
X632Y422D01*
X632Y424D01*
X630Y424D01*
X630Y430D01*
X628Y430D01*
X628Y436D01*
X626Y436D01*
X626Y460D01*
X422Y460D01*
G37*
D02*
G36*
X484Y378D02*
X484Y376D01*
X540Y376D01*
X540Y378D01*
X484Y378D01*
G37*
D02*
G36*
X702Y460D02*
X702Y434D01*
X700Y434D01*
X700Y428D01*
X698Y428D01*
X698Y424D01*
X696Y424D01*
X696Y420D01*
X694Y420D01*
X694Y418D01*
X692Y418D01*
X692Y416D01*
X690Y416D01*
X690Y414D01*
X688Y414D01*
X688Y394D01*
X706Y394D01*
X706Y314D01*
X726Y314D01*
X726Y316D01*
X738Y316D01*
X738Y318D01*
X740Y318D01*
X740Y320D01*
X742Y320D01*
X742Y430D01*
X792Y430D01*
X792Y444D01*
X790Y444D01*
X790Y448D01*
X788Y448D01*
X788Y450D01*
X786Y450D01*
X786Y456D01*
X784Y456D01*
X784Y460D01*
X702Y460D01*
G37*
D02*
G36*
X844Y460D02*
X844Y454D01*
X842Y454D01*
X842Y450D01*
X840Y450D01*
X840Y446D01*
X838Y446D01*
X838Y444D01*
X836Y444D01*
X836Y430D01*
X898Y430D01*
X898Y460D01*
X844Y460D01*
G37*
D02*
G36*
X1224Y460D02*
X1224Y440D01*
X1226Y440D01*
X1226Y438D01*
X1254Y438D01*
X1254Y436D01*
X1260Y436D01*
X1260Y434D01*
X1264Y434D01*
X1264Y432D01*
X1266Y432D01*
X1266Y430D01*
X1270Y430D01*
X1270Y428D01*
X1272Y428D01*
X1272Y426D01*
X1274Y426D01*
X1274Y424D01*
X1276Y424D01*
X1276Y422D01*
X1278Y422D01*
X1278Y420D01*
X1280Y420D01*
X1280Y418D01*
X1282Y418D01*
X1282Y416D01*
X1284Y416D01*
X1284Y412D01*
X1304Y412D01*
X1304Y416D01*
X1306Y416D01*
X1306Y418D01*
X1308Y418D01*
X1308Y420D01*
X1310Y420D01*
X1310Y422D01*
X1312Y422D01*
X1312Y424D01*
X1314Y424D01*
X1314Y426D01*
X1316Y426D01*
X1316Y428D01*
X1318Y428D01*
X1318Y450D01*
X1316Y450D01*
X1316Y452D01*
X1314Y452D01*
X1314Y456D01*
X1312Y456D01*
X1312Y458D01*
X1310Y458D01*
X1310Y460D01*
X1224Y460D01*
G37*
D02*
G36*
X984Y426D02*
X984Y422D01*
X982Y422D01*
X982Y420D01*
X980Y420D01*
X980Y418D01*
X978Y418D01*
X978Y414D01*
X976Y414D01*
X976Y412D01*
X974Y412D01*
X974Y410D01*
X972Y410D01*
X972Y406D01*
X970Y406D01*
X970Y334D01*
X968Y334D01*
X968Y328D01*
X966Y328D01*
X966Y322D01*
X964Y322D01*
X964Y316D01*
X962Y316D01*
X962Y296D01*
X998Y296D01*
X998Y298D01*
X1000Y298D01*
X1000Y302D01*
X1002Y302D01*
X1002Y304D01*
X1004Y304D01*
X1004Y306D01*
X1006Y306D01*
X1006Y310D01*
X1008Y310D01*
X1008Y312D01*
X1010Y312D01*
X1010Y314D01*
X1012Y314D01*
X1012Y316D01*
X1014Y316D01*
X1014Y320D01*
X1016Y320D01*
X1016Y322D01*
X1018Y322D01*
X1018Y324D01*
X1020Y324D01*
X1020Y328D01*
X1022Y328D01*
X1022Y330D01*
X1024Y330D01*
X1024Y350D01*
X1020Y350D01*
X1020Y352D01*
X1018Y352D01*
X1018Y354D01*
X1016Y354D01*
X1016Y356D01*
X1014Y356D01*
X1014Y358D01*
X1010Y358D01*
X1010Y362D01*
X1008Y362D01*
X1008Y364D01*
X1006Y364D01*
X1006Y366D01*
X1004Y366D01*
X1004Y370D01*
X1002Y370D01*
X1002Y374D01*
X1000Y374D01*
X1000Y378D01*
X998Y378D01*
X998Y386D01*
X996Y386D01*
X996Y396D01*
X998Y396D01*
X998Y402D01*
X1000Y402D01*
X1000Y408D01*
X1002Y408D01*
X1002Y412D01*
X1004Y412D01*
X1004Y426D01*
X984Y426D01*
G37*
D02*
G36*
X1084Y368D02*
X1084Y366D01*
X1082Y366D01*
X1082Y364D01*
X1080Y364D01*
X1080Y360D01*
X1078Y360D01*
X1078Y358D01*
X1076Y358D01*
X1076Y356D01*
X1074Y356D01*
X1074Y354D01*
X1070Y354D01*
X1070Y352D01*
X1068Y352D01*
X1068Y350D01*
X1064Y350D01*
X1064Y348D01*
X1060Y348D01*
X1060Y324D01*
X1058Y324D01*
X1058Y322D01*
X1056Y322D01*
X1056Y318D01*
X1054Y318D01*
X1054Y316D01*
X1052Y316D01*
X1052Y314D01*
X1050Y314D01*
X1050Y310D01*
X1048Y310D01*
X1048Y308D01*
X1046Y308D01*
X1046Y306D01*
X1044Y306D01*
X1044Y304D01*
X1042Y304D01*
X1042Y300D01*
X1040Y300D01*
X1040Y298D01*
X1038Y298D01*
X1038Y296D01*
X1036Y296D01*
X1036Y292D01*
X1034Y292D01*
X1034Y290D01*
X1032Y290D01*
X1032Y288D01*
X1030Y288D01*
X1030Y286D01*
X1028Y286D01*
X1028Y282D01*
X1026Y282D01*
X1026Y280D01*
X1024Y280D01*
X1024Y278D01*
X1022Y278D01*
X1022Y276D01*
X1020Y276D01*
X1020Y272D01*
X1018Y272D01*
X1018Y270D01*
X1016Y270D01*
X1016Y268D01*
X1014Y268D01*
X1014Y266D01*
X1010Y266D01*
X1010Y264D01*
X842Y264D01*
X842Y256D01*
X844Y256D01*
X844Y244D01*
X842Y244D01*
X842Y240D01*
X840Y240D01*
X840Y236D01*
X838Y236D01*
X838Y234D01*
X836Y234D01*
X836Y224D01*
X936Y224D01*
X936Y192D01*
X1036Y192D01*
X1036Y194D01*
X1032Y194D01*
X1032Y196D01*
X1028Y196D01*
X1028Y198D01*
X1026Y198D01*
X1026Y200D01*
X1024Y200D01*
X1024Y202D01*
X1022Y202D01*
X1022Y204D01*
X1020Y204D01*
X1020Y208D01*
X1018Y208D01*
X1018Y210D01*
X1016Y210D01*
X1016Y216D01*
X1014Y216D01*
X1014Y224D01*
X1016Y224D01*
X1016Y230D01*
X1018Y230D01*
X1018Y234D01*
X1020Y234D01*
X1020Y238D01*
X1022Y238D01*
X1022Y240D01*
X1024Y240D01*
X1024Y242D01*
X1026Y242D01*
X1026Y244D01*
X1028Y244D01*
X1028Y246D01*
X1032Y246D01*
X1032Y248D01*
X1036Y248D01*
X1036Y250D01*
X1044Y250D01*
X1044Y254D01*
X1046Y254D01*
X1046Y256D01*
X1048Y256D01*
X1048Y260D01*
X1050Y260D01*
X1050Y264D01*
X1052Y264D01*
X1052Y266D01*
X1054Y266D01*
X1054Y270D01*
X1056Y270D01*
X1056Y274D01*
X1058Y274D01*
X1058Y276D01*
X1060Y276D01*
X1060Y280D01*
X1062Y280D01*
X1062Y284D01*
X1064Y284D01*
X1064Y286D01*
X1066Y286D01*
X1066Y290D01*
X1068Y290D01*
X1068Y294D01*
X1070Y294D01*
X1070Y296D01*
X1072Y296D01*
X1072Y300D01*
X1074Y300D01*
X1074Y304D01*
X1076Y304D01*
X1076Y306D01*
X1078Y306D01*
X1078Y310D01*
X1080Y310D01*
X1080Y314D01*
X1082Y314D01*
X1082Y316D01*
X1084Y316D01*
X1084Y320D01*
X1086Y320D01*
X1086Y324D01*
X1088Y324D01*
X1088Y326D01*
X1090Y326D01*
X1090Y330D01*
X1092Y330D01*
X1092Y332D01*
X1094Y332D01*
X1094Y334D01*
X1098Y334D01*
X1098Y336D01*
X1116Y336D01*
X1116Y356D01*
X1114Y356D01*
X1114Y358D01*
X1110Y358D01*
X1110Y362D01*
X1108Y362D01*
X1108Y364D01*
X1106Y364D01*
X1106Y366D01*
X1104Y366D01*
X1104Y368D01*
X1084Y368D01*
G37*
D02*
G36*
X1184Y368D02*
X1184Y366D01*
X1182Y366D01*
X1182Y346D01*
X1204Y346D01*
X1204Y344D01*
X1234Y344D01*
X1234Y346D01*
X1228Y346D01*
X1228Y348D01*
X1224Y348D01*
X1224Y350D01*
X1220Y350D01*
X1220Y352D01*
X1218Y352D01*
X1218Y354D01*
X1216Y354D01*
X1216Y356D01*
X1214Y356D01*
X1214Y358D01*
X1210Y358D01*
X1210Y362D01*
X1208Y362D01*
X1208Y364D01*
X1206Y364D01*
X1206Y366D01*
X1204Y366D01*
X1204Y368D01*
X1184Y368D01*
G37*
D02*
G36*
X1284Y368D02*
X1284Y366D01*
X1282Y366D01*
X1282Y364D01*
X1280Y364D01*
X1280Y360D01*
X1278Y360D01*
X1278Y358D01*
X1276Y358D01*
X1276Y356D01*
X1274Y356D01*
X1274Y354D01*
X1270Y354D01*
X1270Y352D01*
X1268Y352D01*
X1268Y350D01*
X1264Y350D01*
X1264Y348D01*
X1260Y348D01*
X1260Y346D01*
X1254Y346D01*
X1254Y344D01*
X1324Y344D01*
X1324Y350D01*
X1320Y350D01*
X1320Y352D01*
X1318Y352D01*
X1318Y354D01*
X1316Y354D01*
X1316Y356D01*
X1314Y356D01*
X1314Y358D01*
X1310Y358D01*
X1310Y362D01*
X1308Y362D01*
X1308Y364D01*
X1306Y364D01*
X1306Y366D01*
X1304Y366D01*
X1304Y368D01*
X1284Y368D01*
G37*
D02*
G36*
X1204Y344D02*
X1204Y342D01*
X1324Y342D01*
X1324Y344D01*
X1204Y344D01*
G37*
D02*
G36*
X1204Y344D02*
X1204Y342D01*
X1324Y342D01*
X1324Y344D01*
X1204Y344D01*
G37*
D02*
G36*
X1204Y342D02*
X1204Y296D01*
X1108Y296D01*
X1108Y294D01*
X1106Y294D01*
X1106Y290D01*
X1104Y290D01*
X1104Y288D01*
X1102Y288D01*
X1102Y284D01*
X1100Y284D01*
X1100Y280D01*
X1098Y280D01*
X1098Y278D01*
X1096Y278D01*
X1096Y274D01*
X1094Y274D01*
X1094Y270D01*
X1092Y270D01*
X1092Y268D01*
X1090Y268D01*
X1090Y264D01*
X1088Y264D01*
X1088Y260D01*
X1086Y260D01*
X1086Y258D01*
X1084Y258D01*
X1084Y254D01*
X1082Y254D01*
X1082Y250D01*
X1080Y250D01*
X1080Y248D01*
X1078Y248D01*
X1078Y244D01*
X1076Y244D01*
X1076Y240D01*
X1074Y240D01*
X1074Y214D01*
X1072Y214D01*
X1072Y210D01*
X1070Y210D01*
X1070Y206D01*
X1068Y206D01*
X1068Y204D01*
X1066Y204D01*
X1066Y202D01*
X1064Y202D01*
X1064Y200D01*
X1062Y200D01*
X1062Y198D01*
X1060Y198D01*
X1060Y196D01*
X1204Y196D01*
X1204Y146D01*
X1172Y146D01*
X1172Y138D01*
X1254Y138D01*
X1254Y136D01*
X1260Y136D01*
X1260Y134D01*
X1264Y134D01*
X1264Y132D01*
X1266Y132D01*
X1266Y130D01*
X1270Y130D01*
X1270Y128D01*
X1272Y128D01*
X1272Y126D01*
X1274Y126D01*
X1274Y124D01*
X1276Y124D01*
X1276Y122D01*
X1278Y122D01*
X1278Y120D01*
X1280Y120D01*
X1280Y118D01*
X1282Y118D01*
X1282Y116D01*
X1284Y116D01*
X1284Y112D01*
X1304Y112D01*
X1304Y116D01*
X1306Y116D01*
X1306Y118D01*
X1308Y118D01*
X1308Y120D01*
X1310Y120D01*
X1310Y122D01*
X1312Y122D01*
X1312Y124D01*
X1314Y124D01*
X1314Y126D01*
X1316Y126D01*
X1316Y128D01*
X1318Y128D01*
X1318Y130D01*
X1322Y130D01*
X1322Y132D01*
X1324Y132D01*
X1324Y196D01*
X1392Y196D01*
X1392Y296D01*
X1324Y296D01*
X1324Y342D01*
X1204Y342D01*
G37*
D02*
G36*
X1058Y196D02*
X1058Y194D01*
X1054Y194D01*
X1054Y192D01*
X1124Y192D01*
X1124Y196D01*
X1058Y196D01*
G37*
D02*
G36*
X936Y192D02*
X936Y190D01*
X1124Y190D01*
X1124Y192D01*
X936Y192D01*
G37*
D02*
G36*
X936Y192D02*
X936Y190D01*
X1124Y190D01*
X1124Y192D01*
X936Y192D01*
G37*
D02*
G36*
X936Y190D02*
X936Y166D01*
X1100Y166D01*
X1100Y164D01*
X1104Y164D01*
X1104Y162D01*
X1124Y162D01*
X1124Y190D01*
X936Y190D01*
G37*
D02*
G36*
X936Y166D02*
X936Y118D01*
X886Y118D01*
X886Y100D01*
X888Y100D01*
X888Y98D01*
X890Y98D01*
X890Y96D01*
X946Y96D01*
X946Y100D01*
X948Y100D01*
X948Y104D01*
X950Y104D01*
X950Y108D01*
X952Y108D01*
X952Y110D01*
X954Y110D01*
X954Y114D01*
X956Y114D01*
X956Y118D01*
X958Y118D01*
X958Y122D01*
X960Y122D01*
X960Y124D01*
X962Y124D01*
X962Y128D01*
X964Y128D01*
X964Y132D01*
X966Y132D01*
X966Y136D01*
X968Y136D01*
X968Y138D01*
X970Y138D01*
X970Y142D01*
X972Y142D01*
X972Y146D01*
X974Y146D01*
X974Y148D01*
X976Y148D01*
X976Y152D01*
X978Y152D01*
X978Y156D01*
X980Y156D01*
X980Y160D01*
X982Y160D01*
X982Y162D01*
X984Y162D01*
X984Y164D01*
X988Y164D01*
X988Y166D01*
X936Y166D01*
G37*
D02*
G36*
X1172Y138D02*
X1172Y126D01*
X1174Y126D01*
X1174Y124D01*
X1176Y124D01*
X1176Y122D01*
X1178Y122D01*
X1178Y120D01*
X1180Y120D01*
X1180Y118D01*
X1182Y118D01*
X1182Y116D01*
X1184Y116D01*
X1184Y112D01*
X1204Y112D01*
X1204Y116D01*
X1206Y116D01*
X1206Y118D01*
X1208Y118D01*
X1208Y120D01*
X1210Y120D01*
X1210Y122D01*
X1212Y122D01*
X1212Y124D01*
X1214Y124D01*
X1214Y126D01*
X1216Y126D01*
X1216Y128D01*
X1218Y128D01*
X1218Y130D01*
X1222Y130D01*
X1222Y132D01*
X1224Y132D01*
X1224Y134D01*
X1230Y134D01*
X1230Y136D01*
X1236Y136D01*
X1236Y138D01*
X1172Y138D01*
G37*
D02*
G36*
X484Y344D02*
X484Y322D01*
X554Y322D01*
X554Y296D01*
X560Y296D01*
X560Y294D01*
X566Y294D01*
X566Y292D01*
X572Y292D01*
X572Y290D01*
X578Y290D01*
X578Y288D01*
X584Y288D01*
X584Y286D01*
X592Y286D01*
X592Y284D01*
X598Y284D01*
X598Y282D01*
X604Y282D01*
X604Y280D01*
X610Y280D01*
X610Y278D01*
X616Y278D01*
X616Y276D01*
X622Y276D01*
X622Y274D01*
X642Y274D01*
X642Y296D01*
X638Y296D01*
X638Y298D01*
X634Y298D01*
X634Y300D01*
X632Y300D01*
X632Y302D01*
X628Y302D01*
X628Y304D01*
X626Y304D01*
X626Y306D01*
X622Y306D01*
X622Y308D01*
X618Y308D01*
X618Y310D01*
X616Y310D01*
X616Y312D01*
X612Y312D01*
X612Y314D01*
X608Y314D01*
X608Y316D01*
X606Y316D01*
X606Y318D01*
X602Y318D01*
X602Y320D01*
X598Y320D01*
X598Y322D01*
X596Y322D01*
X596Y324D01*
X592Y324D01*
X592Y326D01*
X588Y326D01*
X588Y328D01*
X586Y328D01*
X586Y330D01*
X582Y330D01*
X582Y332D01*
X580Y332D01*
X580Y334D01*
X576Y334D01*
X576Y336D01*
X572Y336D01*
X572Y338D01*
X570Y338D01*
X570Y340D01*
X566Y340D01*
X566Y342D01*
X562Y342D01*
X562Y344D01*
X484Y344D01*
G37*
D02*
G36*
X756Y292D02*
X756Y290D01*
X754Y290D01*
X754Y288D01*
X752Y288D01*
X752Y286D01*
X746Y286D01*
X746Y284D01*
X728Y284D01*
X728Y282D01*
X708Y282D01*
X708Y280D01*
X706Y280D01*
X706Y256D01*
X760Y256D01*
X760Y254D01*
X764Y254D01*
X764Y252D01*
X784Y252D01*
X784Y254D01*
X786Y254D01*
X786Y260D01*
X788Y260D01*
X788Y264D01*
X790Y264D01*
X790Y286D01*
X786Y286D01*
X786Y288D01*
X782Y288D01*
X782Y290D01*
X780Y290D01*
X780Y292D01*
X756Y292D01*
G37*
D02*
G36*
X706Y256D02*
X706Y254D01*
X728Y254D01*
X728Y256D01*
X706Y256D01*
G37*
D02*
G36*
X564Y194D02*
X564Y160D01*
X622Y160D01*
X622Y158D01*
X642Y158D01*
X642Y182D01*
X606Y182D01*
X606Y184D01*
X602Y184D01*
X602Y186D01*
X598Y186D01*
X598Y188D01*
X596Y188D01*
X596Y190D01*
X594Y190D01*
X594Y192D01*
X592Y192D01*
X592Y194D01*
X564Y194D01*
G37*
D02*
G36*
X564Y160D02*
X564Y146D01*
X590Y146D01*
X590Y148D01*
X592Y148D01*
X592Y150D01*
X594Y150D01*
X594Y152D01*
X596Y152D01*
X596Y154D01*
X598Y154D01*
X598Y156D01*
X602Y156D01*
X602Y158D01*
X606Y158D01*
X606Y160D01*
X564Y160D01*
G37*
D02*
G36*
X780Y118D02*
X780Y86D01*
X782Y86D01*
X782Y84D01*
X784Y84D01*
X784Y82D01*
X786Y82D01*
X786Y80D01*
X788Y80D01*
X788Y78D01*
X790Y78D01*
X790Y76D01*
X792Y76D01*
X792Y74D01*
X794Y74D01*
X794Y72D01*
X796Y72D01*
X796Y70D01*
X798Y70D01*
X798Y68D01*
X800Y68D01*
X800Y66D01*
X858Y66D01*
X858Y86D01*
X856Y86D01*
X856Y88D01*
X854Y88D01*
X854Y90D01*
X852Y90D01*
X852Y92D01*
X850Y92D01*
X850Y96D01*
X848Y96D01*
X848Y118D01*
X780Y118D01*
G37*
D02*
G36*
X905Y228D02*
X922Y228D01*
X922Y174D01*
X905Y174D01*
X905Y228D01*
G37*
D02*
G36*
X647Y476D02*
X680Y476D01*
X680Y460D01*
X647Y460D01*
X647Y476D01*
G37*
D02*
G36*
X622Y459D02*
X646Y459D01*
X646Y426D01*
X622Y426D01*
X622Y459D01*
G37*
D02*
G36*
X1146Y200D02*
X1181Y200D01*
X1181Y174D01*
X1146Y174D01*
X1146Y200D01*
G37*
D02*
G36*
X1360Y114D02*
X1392Y114D01*
X1392Y71D01*
X1360Y71D01*
X1360Y114D01*
G37*
D02*
G36*
X647Y36D02*
X680Y36D01*
X680Y18D01*
X647Y18D01*
X647Y36D01*
G37*
D02*
G36*
X256Y178D02*
X311Y178D01*
X311Y158D01*
X256Y158D01*
X256Y178D01*
G37*
D02*
G36*
X220Y186D02*
X282Y186D01*
X282Y171D01*
X220Y171D01*
X220Y186D01*
G37*
D02*
G04 End of Copper1*
M02*