G04 MADE WITH FRITZING*
G04 WWW.FRITZING.ORG*
G04 DOUBLE SIDED*
G04 HOLES PLATED*
G04 CONTOUR ON CENTER OF CONTOUR VECTOR*
%ASAXBY*%
%FSLAX23Y23*%
%MOIN*%
%OFA0B0*%
%SFA1.0B1.0*%
%ADD10R,1.432100X0.500106X1.416100X0.484106*%
%ADD11C,0.008000*%
%ADD12R,0.001000X0.001000*%
%LNSILK0*%
G90*
G70*
G54D11*
X4Y496D02*
X1428Y496D01*
X1428Y4D01*
X4Y4D01*
X4Y496D01*
D02*
G54D12*
X811Y109D02*
X815Y109D01*
X955Y109D02*
X959Y109D01*
X1389Y109D02*
X1393Y109D01*
X809Y108D02*
X816Y108D01*
X954Y108D02*
X961Y108D01*
X1388Y108D02*
X1394Y108D01*
X809Y107D02*
X817Y107D01*
X953Y107D02*
X961Y107D01*
X1387Y107D02*
X1395Y107D01*
X808Y106D02*
X817Y106D01*
X953Y106D02*
X962Y106D01*
X1387Y106D02*
X1395Y106D01*
X808Y105D02*
X817Y105D01*
X953Y105D02*
X962Y105D01*
X1386Y105D02*
X1395Y105D01*
X808Y104D02*
X817Y104D01*
X953Y104D02*
X962Y104D01*
X1386Y104D02*
X1396Y104D01*
X808Y103D02*
X817Y103D01*
X953Y103D02*
X962Y103D01*
X1386Y103D02*
X1396Y103D01*
X808Y102D02*
X817Y102D01*
X953Y102D02*
X962Y102D01*
X1386Y102D02*
X1396Y102D01*
X808Y101D02*
X817Y101D01*
X953Y101D02*
X962Y101D01*
X1386Y101D02*
X1396Y101D01*
X808Y100D02*
X817Y100D01*
X953Y100D02*
X962Y100D01*
X1386Y100D02*
X1396Y100D01*
X808Y99D02*
X817Y99D01*
X953Y99D02*
X962Y99D01*
X1386Y99D02*
X1396Y99D01*
X808Y98D02*
X817Y98D01*
X953Y98D02*
X962Y98D01*
X1386Y98D02*
X1396Y98D01*
X808Y97D02*
X817Y97D01*
X953Y97D02*
X962Y97D01*
X1386Y97D02*
X1396Y97D01*
X808Y96D02*
X817Y96D01*
X953Y96D02*
X962Y96D01*
X1386Y96D02*
X1396Y96D01*
X808Y95D02*
X817Y95D01*
X953Y95D02*
X962Y95D01*
X1386Y95D02*
X1396Y95D01*
X808Y94D02*
X817Y94D01*
X953Y94D02*
X962Y94D01*
X1386Y94D02*
X1396Y94D01*
X808Y93D02*
X817Y93D01*
X953Y93D02*
X962Y93D01*
X1387Y93D02*
X1396Y93D01*
X808Y92D02*
X817Y92D01*
X953Y92D02*
X962Y92D01*
X1387Y92D02*
X1396Y92D01*
X808Y91D02*
X817Y91D01*
X953Y91D02*
X962Y91D01*
X1387Y91D02*
X1396Y91D01*
X808Y90D02*
X817Y90D01*
X953Y90D02*
X962Y90D01*
X1387Y90D02*
X1396Y90D01*
X808Y89D02*
X817Y89D01*
X953Y89D02*
X962Y89D01*
X1386Y89D02*
X1396Y89D01*
X706Y88D02*
X735Y88D01*
X783Y88D02*
X798Y88D01*
X808Y88D02*
X817Y88D01*
X853Y88D02*
X877Y88D01*
X953Y88D02*
X962Y88D01*
X988Y88D02*
X992Y88D01*
X1087Y88D02*
X1092Y88D01*
X1286Y88D02*
X1300Y88D01*
X1386Y88D02*
X1396Y88D01*
X704Y87D02*
X737Y87D01*
X780Y87D02*
X800Y87D01*
X808Y87D02*
X817Y87D01*
X850Y87D02*
X878Y87D01*
X953Y87D02*
X962Y87D01*
X987Y87D02*
X993Y87D01*
X1087Y87D02*
X1095Y87D01*
X1286Y87D02*
X1301Y87D01*
X1386Y87D02*
X1396Y87D01*
X702Y86D02*
X739Y86D01*
X779Y86D02*
X802Y86D01*
X808Y86D02*
X817Y86D01*
X848Y86D02*
X879Y86D01*
X953Y86D02*
X962Y86D01*
X986Y86D02*
X994Y86D01*
X1087Y86D02*
X1096Y86D01*
X1286Y86D02*
X1301Y86D01*
X1386Y86D02*
X1396Y86D01*
X701Y85D02*
X740Y85D01*
X777Y85D02*
X804Y85D01*
X808Y85D02*
X817Y85D01*
X847Y85D02*
X879Y85D01*
X953Y85D02*
X962Y85D01*
X986Y85D02*
X994Y85D01*
X1087Y85D02*
X1098Y85D01*
X1286Y85D02*
X1301Y85D01*
X1386Y85D02*
X1396Y85D01*
X700Y84D02*
X741Y84D01*
X776Y84D02*
X805Y84D01*
X808Y84D02*
X817Y84D01*
X846Y84D02*
X879Y84D01*
X953Y84D02*
X962Y84D01*
X985Y84D02*
X994Y84D01*
X1087Y84D02*
X1099Y84D01*
X1286Y84D02*
X1301Y84D01*
X1386Y84D02*
X1396Y84D01*
X699Y83D02*
X742Y83D01*
X775Y83D02*
X806Y83D01*
X808Y83D02*
X817Y83D01*
X845Y83D02*
X879Y83D01*
X953Y83D02*
X962Y83D01*
X985Y83D02*
X994Y83D01*
X1087Y83D02*
X1100Y83D01*
X1286Y83D02*
X1302Y83D01*
X1386Y83D02*
X1396Y83D01*
X698Y82D02*
X742Y82D01*
X774Y82D02*
X817Y82D01*
X845Y82D02*
X879Y82D01*
X953Y82D02*
X962Y82D01*
X985Y82D02*
X994Y82D01*
X1087Y82D02*
X1101Y82D01*
X1285Y82D02*
X1302Y82D01*
X1386Y82D02*
X1396Y82D01*
X698Y81D02*
X743Y81D01*
X773Y81D02*
X817Y81D01*
X844Y81D02*
X879Y81D01*
X953Y81D02*
X962Y81D01*
X985Y81D02*
X994Y81D01*
X1087Y81D02*
X1102Y81D01*
X1285Y81D02*
X1302Y81D01*
X1386Y81D02*
X1396Y81D01*
X697Y80D02*
X743Y80D01*
X772Y80D02*
X817Y80D01*
X843Y80D02*
X878Y80D01*
X953Y80D02*
X962Y80D01*
X985Y80D02*
X994Y80D01*
X1087Y80D02*
X1103Y80D01*
X1285Y80D02*
X1303Y80D01*
X1386Y80D02*
X1396Y80D01*
X697Y79D02*
X743Y79D01*
X771Y79D02*
X817Y79D01*
X843Y79D02*
X877Y79D01*
X953Y79D02*
X962Y79D01*
X985Y79D02*
X994Y79D01*
X1087Y79D02*
X1103Y79D01*
X1284Y79D02*
X1303Y79D01*
X1386Y79D02*
X1396Y79D01*
X697Y78D02*
X708Y78D01*
X733Y78D02*
X744Y78D01*
X770Y78D02*
X784Y78D01*
X797Y78D02*
X817Y78D01*
X843Y78D02*
X853Y78D01*
X953Y78D02*
X962Y78D01*
X985Y78D02*
X994Y78D01*
X1091Y78D02*
X1103Y78D01*
X1284Y78D02*
X1288Y78D01*
X1299Y78D02*
X1303Y78D01*
X1386Y78D02*
X1396Y78D01*
X698Y77D02*
X706Y77D01*
X734Y77D02*
X744Y77D01*
X770Y77D02*
X782Y77D01*
X798Y77D02*
X817Y77D01*
X842Y77D02*
X852Y77D01*
X953Y77D02*
X962Y77D01*
X985Y77D02*
X994Y77D01*
X1092Y77D02*
X1104Y77D01*
X1284Y77D02*
X1286Y77D01*
X1300Y77D02*
X1304Y77D01*
X1386Y77D02*
X1396Y77D01*
X699Y76D02*
X705Y76D01*
X735Y76D02*
X744Y76D01*
X769Y76D02*
X781Y76D01*
X799Y76D02*
X817Y76D01*
X842Y76D02*
X852Y76D01*
X953Y76D02*
X962Y76D01*
X985Y76D02*
X995Y76D01*
X1094Y76D02*
X1104Y76D01*
X1283Y76D02*
X1286Y76D01*
X1302Y76D02*
X1304Y76D01*
X1386Y76D02*
X1396Y76D01*
X700Y75D02*
X703Y75D01*
X735Y75D02*
X744Y75D01*
X769Y75D02*
X780Y75D01*
X801Y75D02*
X817Y75D01*
X842Y75D02*
X852Y75D01*
X953Y75D02*
X962Y75D01*
X985Y75D02*
X995Y75D01*
X1095Y75D02*
X1105Y75D01*
X1283Y75D02*
X1285Y75D01*
X1303Y75D02*
X1305Y75D01*
X1386Y75D02*
X1396Y75D01*
X734Y74D02*
X744Y74D01*
X769Y74D02*
X779Y74D01*
X802Y74D02*
X817Y74D01*
X842Y74D02*
X851Y74D01*
X953Y74D02*
X962Y74D01*
X985Y74D02*
X995Y74D01*
X1096Y74D02*
X1105Y74D01*
X1282Y74D02*
X1285Y74D01*
X1305Y74D02*
X1305Y74D01*
X1386Y74D02*
X1396Y74D01*
X733Y73D02*
X743Y73D01*
X769Y73D02*
X778Y73D01*
X803Y73D02*
X817Y73D01*
X842Y73D02*
X851Y73D01*
X953Y73D02*
X962Y73D01*
X986Y73D02*
X996Y73D01*
X1097Y73D02*
X1106Y73D01*
X1282Y73D02*
X1285Y73D01*
X1306Y73D02*
X1306Y73D01*
X1386Y73D02*
X1396Y73D01*
X730Y72D02*
X743Y72D01*
X769Y72D02*
X778Y72D01*
X804Y72D02*
X817Y72D01*
X842Y72D02*
X851Y72D01*
X953Y72D02*
X962Y72D01*
X986Y72D02*
X996Y72D01*
X1097Y72D02*
X1106Y72D01*
X1281Y72D02*
X1285Y72D01*
X1386Y72D02*
X1396Y72D01*
X728Y71D02*
X743Y71D01*
X768Y71D02*
X778Y71D01*
X805Y71D02*
X817Y71D01*
X842Y71D02*
X851Y71D01*
X953Y71D02*
X962Y71D01*
X987Y71D02*
X997Y71D01*
X1097Y71D02*
X1106Y71D01*
X1280Y71D02*
X1285Y71D01*
X1386Y71D02*
X1396Y71D01*
X726Y70D02*
X742Y70D01*
X768Y70D02*
X777Y70D01*
X806Y70D02*
X817Y70D01*
X842Y70D02*
X851Y70D01*
X953Y70D02*
X962Y70D01*
X987Y70D02*
X997Y70D01*
X1097Y70D02*
X1106Y70D01*
X1280Y70D02*
X1285Y70D01*
X1386Y70D02*
X1396Y70D01*
X723Y69D02*
X742Y69D01*
X768Y69D02*
X777Y69D01*
X807Y69D02*
X817Y69D01*
X842Y69D02*
X851Y69D01*
X953Y69D02*
X962Y69D01*
X988Y69D02*
X998Y69D01*
X1097Y69D02*
X1106Y69D01*
X1279Y69D02*
X1285Y69D01*
X1386Y69D02*
X1396Y69D01*
X721Y68D02*
X741Y68D01*
X768Y68D02*
X777Y68D01*
X808Y68D02*
X817Y68D01*
X842Y68D02*
X851Y68D01*
X953Y68D02*
X962Y68D01*
X988Y68D02*
X998Y68D01*
X1097Y68D02*
X1106Y68D01*
X1278Y68D02*
X1285Y68D01*
X1386Y68D02*
X1396Y68D01*
X719Y67D02*
X740Y67D01*
X768Y67D02*
X777Y67D01*
X808Y67D02*
X817Y67D01*
X842Y67D02*
X851Y67D01*
X853Y67D02*
X878Y67D01*
X953Y67D02*
X962Y67D01*
X988Y67D02*
X998Y67D01*
X1097Y67D02*
X1106Y67D01*
X1278Y67D02*
X1285Y67D01*
X1386Y67D02*
X1396Y67D01*
X716Y66D02*
X739Y66D01*
X768Y66D02*
X777Y66D01*
X808Y66D02*
X817Y66D01*
X842Y66D02*
X881Y66D01*
X953Y66D02*
X962Y66D01*
X989Y66D02*
X999Y66D01*
X1097Y66D02*
X1106Y66D01*
X1277Y66D02*
X1285Y66D01*
X1386Y66D02*
X1396Y66D01*
X714Y65D02*
X738Y65D01*
X768Y65D02*
X777Y65D01*
X808Y65D02*
X817Y65D01*
X842Y65D02*
X883Y65D01*
X953Y65D02*
X962Y65D01*
X989Y65D02*
X999Y65D01*
X1097Y65D02*
X1106Y65D01*
X1276Y65D02*
X1285Y65D01*
X1376Y65D02*
X1376Y65D01*
X1386Y65D02*
X1396Y65D01*
X712Y64D02*
X736Y64D01*
X768Y64D02*
X777Y64D01*
X808Y64D02*
X817Y64D01*
X842Y64D02*
X884Y64D01*
X953Y64D02*
X962Y64D01*
X990Y64D02*
X1000Y64D01*
X1097Y64D02*
X1106Y64D01*
X1275Y64D02*
X1284Y64D01*
X1375Y64D02*
X1376Y64D01*
X1386Y64D02*
X1396Y64D01*
X709Y63D02*
X734Y63D01*
X768Y63D02*
X777Y63D01*
X808Y63D02*
X817Y63D01*
X842Y63D02*
X885Y63D01*
X953Y63D02*
X962Y63D01*
X990Y63D02*
X1000Y63D01*
X1087Y63D02*
X1106Y63D01*
X1275Y63D02*
X1284Y63D01*
X1374Y63D02*
X1376Y63D01*
X1386Y63D02*
X1396Y63D01*
X707Y62D02*
X731Y62D01*
X768Y62D02*
X777Y62D01*
X808Y62D02*
X817Y62D01*
X842Y62D02*
X886Y62D01*
X953Y62D02*
X962Y62D01*
X991Y62D02*
X1001Y62D01*
X1087Y62D02*
X1106Y62D01*
X1275Y62D02*
X1284Y62D01*
X1314Y62D02*
X1314Y62D01*
X1373Y62D02*
X1376Y62D01*
X1386Y62D02*
X1396Y62D01*
X705Y61D02*
X729Y61D01*
X768Y61D02*
X777Y61D01*
X808Y61D02*
X817Y61D01*
X842Y61D02*
X887Y61D01*
X953Y61D02*
X962Y61D01*
X991Y61D02*
X1001Y61D01*
X1087Y61D02*
X1106Y61D01*
X1275Y61D02*
X1284Y61D01*
X1314Y61D02*
X1315Y61D01*
X1372Y61D02*
X1376Y61D01*
X1386Y61D02*
X1396Y61D01*
X703Y60D02*
X727Y60D01*
X768Y60D02*
X777Y60D01*
X808Y60D02*
X817Y60D01*
X841Y60D02*
X887Y60D01*
X953Y60D02*
X962Y60D01*
X991Y60D02*
X1001Y60D01*
X1087Y60D02*
X1106Y60D01*
X1275Y60D02*
X1284Y60D01*
X1314Y60D02*
X1316Y60D01*
X1371Y60D02*
X1376Y60D01*
X1386Y60D02*
X1396Y60D01*
X702Y59D02*
X724Y59D01*
X768Y59D02*
X777Y59D01*
X808Y59D02*
X817Y59D01*
X841Y59D02*
X888Y59D01*
X953Y59D02*
X962Y59D01*
X992Y59D02*
X1001Y59D01*
X1087Y59D02*
X1106Y59D01*
X1275Y59D02*
X1284Y59D01*
X1314Y59D02*
X1317Y59D01*
X1370Y59D02*
X1376Y59D01*
X1386Y59D02*
X1396Y59D01*
X701Y58D02*
X722Y58D01*
X768Y58D02*
X777Y58D01*
X808Y58D02*
X817Y58D01*
X841Y58D02*
X888Y58D01*
X953Y58D02*
X962Y58D01*
X992Y58D02*
X1001Y58D01*
X1087Y58D02*
X1106Y58D01*
X1275Y58D02*
X1284Y58D01*
X1314Y58D02*
X1318Y58D01*
X1369Y58D02*
X1376Y58D01*
X1386Y58D02*
X1396Y58D01*
X700Y57D02*
X720Y57D01*
X768Y57D02*
X777Y57D01*
X808Y57D02*
X817Y57D01*
X841Y57D02*
X854Y57D01*
X877Y57D02*
X889Y57D01*
X953Y57D02*
X962Y57D01*
X993Y57D02*
X1001Y57D01*
X1087Y57D02*
X1106Y57D01*
X1275Y57D02*
X1284Y57D01*
X1314Y57D02*
X1320Y57D01*
X1367Y57D02*
X1376Y57D01*
X1386Y57D02*
X1396Y57D01*
X699Y56D02*
X717Y56D01*
X768Y56D02*
X777Y56D01*
X808Y56D02*
X817Y56D01*
X841Y56D02*
X852Y56D01*
X879Y56D02*
X889Y56D01*
X953Y56D02*
X962Y56D01*
X993Y56D02*
X1001Y56D01*
X1087Y56D02*
X1106Y56D01*
X1275Y56D02*
X1284Y56D01*
X1314Y56D02*
X1321Y56D01*
X1367Y56D02*
X1376Y56D01*
X1386Y56D02*
X1396Y56D01*
X698Y55D02*
X715Y55D01*
X768Y55D02*
X777Y55D01*
X808Y55D02*
X817Y55D01*
X841Y55D02*
X851Y55D01*
X880Y55D02*
X889Y55D01*
X953Y55D02*
X962Y55D01*
X994Y55D02*
X1001Y55D01*
X1087Y55D02*
X1106Y55D01*
X1222Y55D02*
X1223Y55D01*
X1275Y55D02*
X1284Y55D01*
X1314Y55D02*
X1323Y55D01*
X1367Y55D02*
X1376Y55D01*
X1386Y55D02*
X1396Y55D01*
X698Y54D02*
X713Y54D01*
X768Y54D02*
X777Y54D01*
X808Y54D02*
X817Y54D01*
X841Y54D02*
X851Y54D01*
X880Y54D02*
X889Y54D01*
X953Y54D02*
X962Y54D01*
X994Y54D02*
X1001Y54D01*
X1087Y54D02*
X1106Y54D01*
X1222Y54D02*
X1224Y54D01*
X1275Y54D02*
X1284Y54D01*
X1314Y54D02*
X1323Y54D01*
X1367Y54D02*
X1376Y54D01*
X1386Y54D02*
X1396Y54D01*
X697Y53D02*
X711Y53D01*
X768Y53D02*
X777Y53D01*
X808Y53D02*
X817Y53D01*
X841Y53D02*
X850Y53D01*
X880Y53D02*
X889Y53D01*
X953Y53D02*
X962Y53D01*
X995Y53D02*
X1001Y53D01*
X1097Y53D02*
X1106Y53D01*
X1222Y53D02*
X1226Y53D01*
X1275Y53D02*
X1284Y53D01*
X1314Y53D02*
X1323Y53D01*
X1367Y53D02*
X1376Y53D01*
X1386Y53D02*
X1396Y53D01*
X697Y52D02*
X708Y52D01*
X768Y52D02*
X777Y52D01*
X807Y52D02*
X817Y52D01*
X841Y52D02*
X850Y52D01*
X880Y52D02*
X889Y52D01*
X953Y52D02*
X962Y52D01*
X995Y52D02*
X1001Y52D01*
X1097Y52D02*
X1106Y52D01*
X1159Y52D02*
X1159Y52D01*
X1222Y52D02*
X1229Y52D01*
X1275Y52D02*
X1284Y52D01*
X1314Y52D02*
X1323Y52D01*
X1367Y52D02*
X1376Y52D01*
X1386Y52D02*
X1396Y52D01*
X697Y51D02*
X707Y51D01*
X768Y51D02*
X777Y51D01*
X807Y51D02*
X817Y51D01*
X841Y51D02*
X850Y51D01*
X880Y51D02*
X889Y51D01*
X953Y51D02*
X962Y51D01*
X995Y51D02*
X1001Y51D01*
X1097Y51D02*
X1106Y51D01*
X1156Y51D02*
X1159Y51D01*
X1222Y51D02*
X1231Y51D01*
X1275Y51D02*
X1284Y51D01*
X1314Y51D02*
X1323Y51D01*
X1356Y51D02*
X1356Y51D01*
X1367Y51D02*
X1376Y51D01*
X1386Y51D02*
X1396Y51D01*
X697Y50D02*
X706Y50D01*
X768Y50D02*
X777Y50D01*
X806Y50D02*
X817Y50D01*
X841Y50D02*
X850Y50D01*
X880Y50D02*
X889Y50D01*
X953Y50D02*
X962Y50D01*
X996Y50D02*
X1001Y50D01*
X1097Y50D02*
X1106Y50D01*
X1153Y50D02*
X1159Y50D01*
X1222Y50D02*
X1231Y50D01*
X1275Y50D02*
X1284Y50D01*
X1314Y50D02*
X1323Y50D01*
X1353Y50D02*
X1356Y50D01*
X1367Y50D02*
X1376Y50D01*
X1386Y50D02*
X1396Y50D01*
X697Y49D02*
X706Y49D01*
X768Y49D02*
X778Y49D01*
X805Y49D02*
X817Y49D01*
X841Y49D02*
X850Y49D01*
X880Y49D02*
X889Y49D01*
X953Y49D02*
X962Y49D01*
X996Y49D02*
X1001Y49D01*
X1097Y49D02*
X1106Y49D01*
X1150Y49D02*
X1159Y49D01*
X1222Y49D02*
X1231Y49D01*
X1275Y49D02*
X1284Y49D01*
X1314Y49D02*
X1323Y49D01*
X1347Y49D02*
X1356Y49D01*
X1367Y49D02*
X1376Y49D01*
X1386Y49D02*
X1396Y49D01*
X697Y48D02*
X706Y48D01*
X769Y48D02*
X778Y48D01*
X803Y48D02*
X817Y48D01*
X841Y48D02*
X851Y48D01*
X880Y48D02*
X889Y48D01*
X953Y48D02*
X962Y48D01*
X997Y48D02*
X1007Y48D01*
X1013Y48D02*
X1023Y48D01*
X1097Y48D02*
X1106Y48D01*
X1150Y48D02*
X1159Y48D01*
X1222Y48D02*
X1231Y48D01*
X1275Y48D02*
X1284Y48D01*
X1314Y48D02*
X1323Y48D01*
X1347Y48D02*
X1356Y48D01*
X1367Y48D02*
X1376Y48D01*
X1386Y48D02*
X1396Y48D01*
X696Y47D02*
X706Y47D01*
X769Y47D02*
X779Y47D01*
X802Y47D02*
X817Y47D01*
X841Y47D02*
X853Y47D01*
X880Y47D02*
X889Y47D01*
X953Y47D02*
X962Y47D01*
X997Y47D02*
X1007Y47D01*
X1012Y47D02*
X1022Y47D01*
X1096Y47D02*
X1106Y47D01*
X1150Y47D02*
X1159Y47D01*
X1222Y47D02*
X1231Y47D01*
X1275Y47D02*
X1284Y47D01*
X1314Y47D02*
X1323Y47D01*
X1347Y47D02*
X1356Y47D01*
X1367Y47D02*
X1376Y47D01*
X1386Y47D02*
X1396Y47D01*
X696Y46D02*
X706Y46D01*
X740Y46D02*
X741Y46D01*
X769Y46D02*
X780Y46D01*
X801Y46D02*
X817Y46D01*
X841Y46D02*
X854Y46D01*
X880Y46D02*
X889Y46D01*
X953Y46D02*
X962Y46D01*
X998Y46D02*
X1022Y46D01*
X1095Y46D02*
X1106Y46D01*
X1150Y46D02*
X1159Y46D01*
X1222Y46D02*
X1231Y46D01*
X1275Y46D02*
X1284Y46D01*
X1314Y46D02*
X1323Y46D01*
X1347Y46D02*
X1356Y46D01*
X1366Y46D02*
X1376Y46D01*
X1386Y46D02*
X1396Y46D01*
X696Y45D02*
X706Y45D01*
X738Y45D02*
X743Y45D01*
X769Y45D02*
X781Y45D01*
X800Y45D02*
X817Y45D01*
X841Y45D02*
X856Y45D01*
X880Y45D02*
X889Y45D01*
X953Y45D02*
X962Y45D01*
X998Y45D02*
X1021Y45D01*
X1094Y45D02*
X1106Y45D01*
X1150Y45D02*
X1159Y45D01*
X1222Y45D02*
X1231Y45D01*
X1275Y45D02*
X1284Y45D01*
X1314Y45D02*
X1323Y45D01*
X1347Y45D02*
X1357Y45D01*
X1365Y45D02*
X1377Y45D01*
X1385Y45D02*
X1396Y45D01*
X697Y44D02*
X707Y44D01*
X736Y44D02*
X744Y44D01*
X770Y44D02*
X782Y44D01*
X799Y44D02*
X817Y44D01*
X841Y44D02*
X858Y44D01*
X879Y44D02*
X889Y44D01*
X953Y44D02*
X962Y44D01*
X998Y44D02*
X1021Y44D01*
X1093Y44D02*
X1105Y44D01*
X1150Y44D02*
X1159Y44D01*
X1222Y44D02*
X1231Y44D01*
X1275Y44D02*
X1284Y44D01*
X1314Y44D02*
X1323Y44D01*
X1347Y44D02*
X1357Y44D01*
X1365Y44D02*
X1377Y44D01*
X1385Y44D02*
X1395Y44D01*
X697Y43D02*
X708Y43D01*
X735Y43D02*
X745Y43D01*
X770Y43D02*
X783Y43D01*
X798Y43D02*
X817Y43D01*
X841Y43D02*
X859Y43D01*
X878Y43D02*
X889Y43D01*
X953Y43D02*
X962Y43D01*
X999Y43D02*
X1020Y43D01*
X1092Y43D02*
X1105Y43D01*
X1150Y43D02*
X1159Y43D01*
X1222Y43D02*
X1231Y43D01*
X1275Y43D02*
X1284Y43D01*
X1314Y43D02*
X1323Y43D01*
X1347Y43D02*
X1358Y43D01*
X1364Y43D02*
X1378Y43D01*
X1384Y43D02*
X1395Y43D01*
X697Y42D02*
X710Y42D01*
X732Y42D02*
X745Y42D01*
X771Y42D02*
X786Y42D01*
X795Y42D02*
X817Y42D01*
X841Y42D02*
X861Y42D01*
X876Y42D02*
X889Y42D01*
X952Y42D02*
X962Y42D01*
X999Y42D02*
X1020Y42D01*
X1089Y42D02*
X1104Y42D01*
X1149Y42D02*
X1159Y42D01*
X1222Y42D02*
X1231Y42D01*
X1275Y42D02*
X1284Y42D01*
X1314Y42D02*
X1323Y42D01*
X1348Y42D02*
X1359Y42D01*
X1364Y42D02*
X1379Y42D01*
X1383Y42D02*
X1394Y42D01*
X698Y41D02*
X745Y41D01*
X772Y41D02*
X817Y41D01*
X841Y41D02*
X888Y41D01*
X915Y41D02*
X962Y41D01*
X1000Y41D02*
X1020Y41D01*
X1060Y41D02*
X1103Y41D01*
X1137Y41D02*
X1171Y41D01*
X1209Y41D02*
X1244Y41D01*
X1275Y41D02*
X1284Y41D01*
X1314Y41D02*
X1323Y41D01*
X1349Y41D02*
X1394Y41D01*
X698Y40D02*
X745Y40D01*
X772Y40D02*
X817Y40D01*
X841Y40D02*
X888Y40D01*
X914Y40D02*
X962Y40D01*
X1000Y40D02*
X1019Y40D01*
X1059Y40D02*
X1103Y40D01*
X1136Y40D02*
X1173Y40D01*
X1208Y40D02*
X1245Y40D01*
X1275Y40D02*
X1284Y40D01*
X1314Y40D02*
X1323Y40D01*
X1349Y40D02*
X1393Y40D01*
X699Y39D02*
X744Y39D01*
X773Y39D02*
X817Y39D01*
X841Y39D02*
X887Y39D01*
X913Y39D02*
X962Y39D01*
X1001Y39D02*
X1019Y39D01*
X1058Y39D02*
X1102Y39D01*
X1135Y39D02*
X1173Y39D01*
X1208Y39D02*
X1246Y39D01*
X1275Y39D02*
X1284Y39D01*
X1314Y39D02*
X1323Y39D01*
X1350Y39D02*
X1393Y39D01*
X699Y38D02*
X744Y38D01*
X774Y38D02*
X817Y38D01*
X841Y38D02*
X887Y38D01*
X913Y38D02*
X962Y38D01*
X1001Y38D02*
X1018Y38D01*
X1058Y38D02*
X1101Y38D01*
X1135Y38D02*
X1174Y38D01*
X1207Y38D02*
X1246Y38D01*
X1275Y38D02*
X1284Y38D01*
X1314Y38D02*
X1323Y38D01*
X1350Y38D02*
X1392Y38D01*
X700Y37D02*
X743Y37D01*
X776Y37D02*
X805Y37D01*
X808Y37D02*
X817Y37D01*
X841Y37D02*
X886Y37D01*
X913Y37D02*
X962Y37D01*
X1002Y37D02*
X1017Y37D01*
X1058Y37D02*
X1099Y37D01*
X1135Y37D02*
X1174Y37D01*
X1207Y37D02*
X1246Y37D01*
X1275Y37D02*
X1284Y37D01*
X1314Y37D02*
X1323Y37D01*
X1351Y37D02*
X1391Y37D01*
X701Y36D02*
X741Y36D01*
X777Y36D02*
X804Y36D01*
X808Y36D02*
X817Y36D01*
X841Y36D02*
X850Y36D01*
X852Y36D02*
X885Y36D01*
X913Y36D02*
X962Y36D01*
X1002Y36D02*
X1013Y36D01*
X1058Y36D02*
X1098Y36D01*
X1135Y36D02*
X1174Y36D01*
X1207Y36D02*
X1246Y36D01*
X1275Y36D02*
X1283Y36D01*
X1314Y36D02*
X1323Y36D01*
X1351Y36D02*
X1391Y36D01*
X702Y35D02*
X740Y35D01*
X778Y35D02*
X803Y35D01*
X809Y35D02*
X817Y35D01*
X841Y35D02*
X849Y35D01*
X854Y35D02*
X884Y35D01*
X913Y35D02*
X962Y35D01*
X1002Y35D02*
X1013Y35D01*
X1058Y35D02*
X1097Y35D01*
X1135Y35D02*
X1173Y35D01*
X1208Y35D02*
X1246Y35D01*
X1275Y35D02*
X1283Y35D01*
X1315Y35D02*
X1323Y35D01*
X1352Y35D02*
X1390Y35D01*
X704Y34D02*
X738Y34D01*
X779Y34D02*
X801Y34D01*
X809Y34D02*
X816Y34D01*
X842Y34D02*
X849Y34D01*
X856Y34D02*
X882Y34D01*
X914Y34D02*
X962Y34D01*
X1003Y34D02*
X1013Y34D01*
X1059Y34D02*
X1095Y34D01*
X1136Y34D02*
X1173Y34D01*
X1208Y34D02*
X1245Y34D01*
X1276Y34D02*
X1283Y34D01*
X1315Y34D02*
X1322Y34D01*
X1353Y34D02*
X1370Y34D01*
X1373Y34D02*
X1390Y34D01*
X706Y33D02*
X736Y33D01*
X781Y33D02*
X799Y33D01*
X810Y33D02*
X815Y33D01*
X843Y33D02*
X848Y33D01*
X857Y33D02*
X880Y33D01*
X915Y33D02*
X962Y33D01*
X1003Y33D02*
X1013Y33D01*
X1060Y33D02*
X1093Y33D01*
X1137Y33D02*
X1172Y33D01*
X1209Y33D02*
X1244Y33D01*
X1276Y33D02*
X1282Y33D01*
X1316Y33D02*
X1321Y33D01*
X1354Y33D02*
X1369Y33D01*
X1374Y33D02*
X1389Y33D01*
X710Y32D02*
X731Y32D01*
X785Y32D02*
X795Y32D01*
X812Y32D02*
X813Y32D01*
X845Y32D02*
X846Y32D01*
X860Y32D02*
X876Y32D01*
X917Y32D02*
X961Y32D01*
X1004Y32D02*
X1014Y32D01*
X1062Y32D02*
X1090Y32D01*
X1139Y32D02*
X1169Y32D01*
X1212Y32D02*
X1242Y32D01*
X1279Y32D02*
X1279Y32D01*
X1319Y32D02*
X1319Y32D01*
X1356Y32D02*
X1367Y32D01*
X1376Y32D02*
X1387Y32D01*
X1004Y31D02*
X1014Y31D01*
X1005Y30D02*
X1015Y30D01*
X1005Y29D02*
X1015Y29D01*
X1005Y28D02*
X1016Y28D01*
X1006Y27D02*
X1016Y27D01*
X1006Y26D02*
X1016Y26D01*
X1007Y25D02*
X1017Y25D01*
X1007Y24D02*
X1017Y24D01*
X1008Y23D02*
X1018Y23D01*
X1008Y22D02*
X1018Y22D01*
X1009Y21D02*
X1019Y21D01*
X1009Y20D02*
X1032Y20D01*
X1009Y19D02*
X1033Y19D01*
X1010Y18D02*
X1033Y18D01*
X1010Y17D02*
X1034Y17D01*
X1011Y16D02*
X1034Y16D01*
X1011Y15D02*
X1034Y15D01*
X1012Y14D02*
X1034Y14D01*
X1012Y13D02*
X1033Y13D01*
X1013Y12D02*
X1032Y12D01*
X1015Y11D02*
X1031Y11D01*
D02*
G04 End of Silk0*
M02*