; NON-PLATED HOLES START AT T1
; THROUGH (PLATED) HOLES START AT T100
M48
INCH
T100C0.015748
T101C0.035433
T102C0.035000
%
T100
X008142Y002508
X006142Y002108
X003842Y002008
X008142Y004608
X003842Y002608
X010442Y002208
X006142Y001308
T101
X006642Y004408
X003842Y004408
X006642Y000508
X003842Y000508
X001857Y001541
X001857Y003274
T102
X013442Y000908
X012442Y000908
X011442Y000908
X013442Y003908
X010442Y000908
X012442Y003908
X011442Y003908
X010442Y003908
T00
M30
