G04 MADE WITH FRITZING*
G04 WWW.FRITZING.ORG*
G04 DOUBLE SIDED*
G04 HOLES PLATED*
G04 CONTOUR ON CENTER OF CONTOUR VECTOR*
%ASAXBY*%
%FSLAX23Y23*%
%MOIN*%
%OFA0B0*%
%SFA1.0B1.0*%
%ADD10C,0.039370*%
%ADD11C,0.075000*%
%ADD12C,0.055433*%
%ADD13C,0.031496*%
%ADD14C,0.031000*%
%ADD15R,0.075000X0.075000*%
%ADD16C,0.012000*%
%LNCOPPER0*%
G90*
G70*
G54D10*
X614Y211D03*
X814Y251D03*
X814Y461D03*
X1044Y221D03*
X614Y131D03*
X384Y261D03*
X384Y201D03*
G54D11*
X1044Y91D03*
X1044Y391D03*
X1144Y91D03*
X1144Y391D03*
X1244Y91D03*
X1244Y391D03*
X1344Y91D03*
X1344Y391D03*
G54D12*
X384Y51D03*
X664Y51D03*
X384Y441D03*
X664Y441D03*
G54D13*
X186Y327D03*
G54D14*
X186Y154D03*
G54D15*
X1044Y91D03*
G54D16*
X645Y251D02*
X801Y251D01*
D02*
X1244Y221D02*
X1244Y114D01*
D02*
X874Y280D02*
X1174Y280D01*
D02*
X826Y257D02*
X874Y280D01*
D02*
X1174Y280D02*
X1244Y221D01*
D02*
X622Y221D02*
X645Y251D01*
D02*
X1104Y461D02*
X828Y461D01*
D02*
X1133Y411D02*
X1104Y461D01*
D02*
X1044Y207D02*
X1044Y114D01*
D02*
X814Y31D02*
X734Y131D01*
D02*
X1094Y31D02*
X814Y31D01*
D02*
X734Y131D02*
X628Y131D01*
D02*
X1129Y73D02*
X1094Y31D01*
D02*
X384Y274D02*
X384Y418D01*
D02*
X384Y187D02*
X384Y74D01*
D02*
X555Y431D02*
X641Y439D01*
D02*
X564Y50D02*
X534Y71D01*
D02*
X533Y401D02*
X555Y431D01*
D02*
X534Y71D02*
X533Y401D01*
D02*
X641Y51D02*
X564Y50D01*
G04 End of Copper0*
M02*